<?xml version="1.0" encoding="UTF-8"?>
<svg xmlns="http://www.w3.org/2000/svg" xmlns:xlink="http://www.w3.org/1999/xlink" width="30px" height="30px" viewBox="0 0 30 30" version="1.1">
<g id="surface1">
<path style="fill:none;stroke-width:2;stroke-linecap:round;stroke-linejoin:round;stroke:rgb(0%,0%,0%);stroke-opacity:1;stroke-miterlimit:4;" d="M 18 6 L 17.2 18.0125 C 17.128125 19.065625 17.09375 19.590625 16.865625 19.990625 C 16.665625 20.340625 16.365625 20.625 16 20.8 C 15.5875 21 15.059375 21 14.00625 21 L 9.99375 21 C 8.940625 21 8.4125 21 8 20.8 C 7.634375 20.625 7.334375 20.340625 7.134375 19.990625 C 6.90625 19.590625 6.871875 19.065625 6.8 18.0125 L 6 6 M 4 6 L 20 6 M 16 6 L 15.728125 5.1875 C 15.465625 4.4 15.334375 4.009375 15.09375 3.715625 C 14.878125 3.459375 14.603125 3.2625 14.290625 3.1375 C 13.9375 3 13.521875 3 12.69375 3 L 11.30625 3 C 10.478125 3 10.0625 3 9.709375 3.1375 C 9.396875 3.2625 9.121875 3.459375 8.90625 3.715625 C 8.6625 4.009375 8.534375 4.4 8.271875 5.1875 L 8 6 M 14 10 L 14 17 M 10 10 L 10 17 " transform="matrix(1.25,0,0,1.25,0,0)"/>
</g>
</svg>
